<svg xmlns="http://www.w3.org/2000/svg" width="64" height="64" viewBox="0 0 64 64"><rect width="100%" height="100%" fill="#ECEFF3"/><path fill="#C9D3DD" d="M12.065 32.635q0-2.54 1.08-3.78 1.07-1.25 3.22-1.25.73 0 1.14.09v1.45q-.52-.12-1.03-.12-.93 0-1.52.28t-.88.84q-.29.55-.35 1.56h.08q.58-1 1.86-1 1.15 0 1.8.72.65.72.65 2 0 1.37-.78 2.17-.77.8-2.14.8-.95 0-1.66-.44-.7-.44-1.09-1.29-.38-.84-.38-2.03Zm3.09 2.31q.58 0 .9-.39.31-.39.31-1.11 0-.63-.29-.99t-.88-.36q-.55 0-.94.36-.39.36-.39.83 0 .7.37 1.18.36.48.92.48Zm10-1.85v1.4h-1.03v1.78h-1.77v-1.78h-3.66v-1.26l3.76-5.53h1.67v5.39h1.03Zm-4.86 0h2.06v-1.45q0-.37.03-1.06.03-.69.05-.8h-.05q-.22.48-.52.94l-1.57 2.37Zm8.93.71 1.74-1.77-1.75-1.76.89-.9 1.77 1.75 1.78-1.75.9.88-1.79 1.78 1.77 1.78-.88.89-1.78-1.76-1.77 1.75-.88-.89Zm9.62-1.17q0-2.54 1.08-3.78 1.07-1.25 3.22-1.25.73 0 1.15.09v1.45q-.52-.12-1.03-.12-.94 0-1.52.28-.59.28-.89.84-.29.55-.34 1.56h.07q.58-1 1.86-1 1.15 0 1.8.72.65.72.65 2 0 1.37-.77 2.17-.78.8-2.15.8-.95 0-1.65-.44-.71-.44-1.09-1.29-.39-.84-.39-2.03Zm3.1 2.31q.58 0 .89-.39.31-.39.31-1.11 0-.63-.29-.99t-.88-.36q-.55 0-.94.36-.39.36-.39.83 0 .7.37 1.18t.93.48Zm9.99-1.85v1.4h-1.03v1.78h-1.77v-1.78h-3.65v-1.26l3.75-5.53h1.67v5.39h1.03Zm-4.86 0h2.06v-1.45q0-.37.03-1.06.03-.69.05-.8h-.05q-.21.48-.52.94l-1.57 2.37Z"/></svg>