<svg xmlns="http://www.w3.org/2000/svg" width="64" height="64" viewBox="0 0 64 64"><rect width="100%" height="100%" fill="#ECEFF3"/><path fill="#9FAFC1" d="M38.555 26.29q0 1.94-1.18 3.3-1.17 1.36-3.3 1.87v.08q2.51.31 3.8 1.52t1.29 3.27q0 2.99-2.17 4.65-2.17 1.66-6.19 1.66-3.37 0-5.97-1.12V37.8q1.2.61 2.65.99 1.44.38 2.86.38 2.16 0 3.2-.73 1.03-.74 1.03-2.37 0-1.46-1.19-2.06-1.19-.61-3.79-.61h-1.58v-3.36h1.6q2.41 0 3.52-.63 1.11-.63 1.11-2.16 0-2.35-2.94-2.35-1.02 0-2.08.34-1.05.34-2.34 1.18l-2.02-3.02q2.83-2.04 6.75-2.04 3.21 0 5.08 1.3 1.86 1.31 1.86 3.63Z"/></svg>