<svg xmlns="http://www.w3.org/2000/svg" width="64" height="64" viewBox="0 0 64 64"><rect width="100%" height="100%" fill="#ECEFF3"/><path fill="#9FAFC1" d="M39.265 38.82v3.68h-14.48v-3.04l5.2-5.26q2.31-2.36 3.02-3.28.71-.91 1.02-1.69.31-.78.31-1.61 0-1.25-.69-1.86-.69-.61-1.83-.61-1.21 0-2.34.56-1.13.55-2.36 1.57l-2.38-2.82q1.53-1.3 2.53-1.84 1.01-.54 2.2-.83 1.19-.29 2.66-.29 1.94 0 3.43.71 1.48.71 2.3 1.98.83 1.28.83 2.92 0 1.43-.51 2.68-.5 1.25-1.55 2.57-1.06 1.32-3.72 3.75l-2.66 2.51v.2h9.02Z"/></svg>