<svg xmlns="http://www.w3.org/2000/svg" width="600" height="450" viewBox="0 0 600 450"><rect width="100%" height="100%" fill="#ECEFF3"/><path fill="#C9D3DD" d="M122.23 229.355q0-16.95 7.16-25.23 7.17-8.28 21.47-8.28 4.88 0 7.66.58v9.65q-3.48-.78-6.88-.78-6.21 0-10.14 1.87-3.92 1.88-5.87 5.55-1.96 3.67-2.31 10.43h.51q3.87-6.64 12.38-6.64 7.66 0 11.99 4.81 4.34 4.8 4.34 13.28 0 9.14-5.16 14.47-5.15 5.33-14.29 5.33-6.33 0-11.04-2.93-4.71-2.93-7.26-8.55-2.56-5.63-2.56-13.56Zm20.62 15.39q3.87 0 5.94-2.59 2.07-2.6 2.07-7.41 0-4.18-1.93-6.58-1.94-2.4-5.84-2.4-3.68 0-6.27 2.38-2.6 2.38-2.6 5.55 0 4.65 2.44 7.85 2.44 3.2 6.19 3.2Zm65.04-19.68q0 14.96-4.9 22.14-4.9 7.19-15.1 7.19-9.88 0-14.9-7.42t-5.02-21.91q0-15.12 4.88-22.29t15.04-7.17q9.88 0 14.94 7.5 5.06 7.5 5.06 21.96Zm-27.93 0q0 10.5 1.82 15.05 1.81 4.55 6.11 4.55 4.22 0 6.09-4.6 1.88-4.61 1.88-15 0-10.51-1.89-15.1-1.9-4.59-6.08-4.59-4.26 0-6.09 4.59-1.84 4.59-1.84 15.1Zm73.6 0q0 14.96-4.91 22.14-4.9 7.19-15.09 7.19-9.89 0-14.91-7.42t-5.02-21.91q0-15.12 4.89-22.29 4.88-7.17 15.04-7.17 9.88 0 14.94 7.5 5.06 7.5 5.06 21.96Zm-27.93 0q0 10.5 1.81 15.05 1.82 4.55 6.12 4.55 4.21 0 6.09-4.6 1.87-4.61 1.87-15 0-10.51-1.89-15.1-1.9-4.59-6.07-4.59-4.26 0-6.1 4.59-1.83 4.59-1.83 15.1Zm56.68 12.07 11.6-11.76-11.68-11.76 5.93-6.02 11.76 11.68 11.92-11.68 5.97 5.86-11.91 11.92 11.76 11.83-5.82 5.94-11.92-11.76-11.76 11.68-5.85-5.93Zm105.74-4.73v9.37h-6.88v11.84h-11.79v-11.84H345v-8.39l25.04-36.88h11.13v35.9h6.88Zm-32.42 0h13.75v-9.69q0-2.42.19-7.03.2-4.61.31-5.35h-.31q-1.44 3.2-3.48 6.25l-10.46 15.82Zm57.65-15.27q8.28 0 13.19 4.64 4.9 4.65 4.9 12.74 0 9.57-5.9 14.72-5.9 5.16-16.88 5.16-9.53 0-15.39-3.08v-10.43q3.09 1.64 7.19 2.67 4.1 1.04 7.77 1.04 11.06 0 11.06-9.07 0-8.63-11.45-8.63-2.07 0-4.57.41-2.5.41-4.06.88l-4.8-2.58 2.14-29.1h30.98v10.23h-20.39l-1.05 11.22 1.36-.28q2.39-.54 5.9-.54Zm64.49 7.93q0 14.96-4.9 22.14-4.9 7.19-15.1 7.19-9.88 0-14.9-7.42t-5.02-21.91q0-15.12 4.88-22.29 4.89-7.17 15.04-7.17 9.89 0 14.95 7.5 5.05 7.5 5.05 21.96Zm-27.93 0q0 10.5 1.82 15.05 1.82 4.55 6.11 4.55 4.22 0 6.1-4.6 1.87-4.61 1.87-15 0-10.51-1.89-15.1-1.9-4.59-6.08-4.59-4.25 0-6.09 4.59-1.84 4.59-1.84 15.1Z"/></svg>