<svg xmlns="http://www.w3.org/2000/svg" width="64" height="64" viewBox="0 0 64 64"><rect width="100%" height="100%" fill="#DDDDDD"/><path fill="#999999" d="m17.29 27.61-2.57 3.15-.3.38q.25-.13.54-.2.29-.07.63-.07.49 0 .95.16.47.17.82.49.36.33.57.82.22.48.22 1.13 0 .61-.22 1.14-.23.53-.63.92-.4.4-.97.63-.56.23-1.25.23t-1.25-.23q-.55-.22-.94-.62-.39-.4-.6-.96-.2-.56-.2-1.24 0-.61.25-1.26.25-.64.77-1.34l2.07-2.78q.11-.14.31-.24.21-.11.48-.11h1.32Zm-2.24 7.56q.36 0 .65-.12.3-.12.51-.33.22-.22.34-.51.12-.29.12-.63 0-.37-.12-.67-.11-.3-.32-.51-.21-.2-.51-.31-.29-.11-.64-.11-.36 0-.65.12-.28.12-.49.34-.2.21-.32.5-.11.29-.11.63 0 .36.1.65.1.3.29.51.2.21.49.33.28.11.66.11Zm5.13-2.15h2.64v-2.84q0-.4.05-.89l-2.69 3.73Zm3.93 0h1.09v.86q0 .12-.08.2-.08.09-.22.09h-.79v2.12h-1.29v-2.12h-3.66q-.15 0-.27-.09-.11-.09-.14-.23l-.16-.75 4.11-5.49h1.41v5.41Zm10.62 1.28-.78.78-2.04-2.04-2.05 2.05-.79-.77 2.06-2.06-1.96-1.96.78-.78 1.96 1.96 1.94-1.95.79.78-1.95 1.95 2.04 2.04ZM44 27.61l-2.57 3.15-.3.38q.25-.13.54-.2.29-.07.63-.07.49 0 .96.16.46.17.81.49.36.33.57.82.22.48.22 1.13 0 .61-.22 1.14-.22.53-.63.92-.4.4-.96.63-.57.23-1.26.23-.69 0-1.24-.23-.56-.22-.95-.62-.39-.4-.59-.96-.21-.56-.21-1.24 0-.61.25-1.26.25-.64.77-1.34l2.07-2.78q.11-.14.32-.24.2-.11.47-.11H44Zm-2.24 7.56q.36 0 .66-.12.29-.12.51-.33.21-.22.33-.51.12-.29.12-.63 0-.37-.12-.67-.11-.3-.32-.51-.21-.2-.5-.31-.3-.11-.65-.11-.36 0-.64.12-.29.12-.5.34-.2.21-.31.5-.12.29-.12.63 0 .36.1.65.1.3.3.51.19.21.48.33.29.11.66.11Zm5.13-2.15h2.64v-2.84q0-.4.05-.89l-2.69 3.73Zm3.93 0h1.09v.86q0 .12-.08.2-.08.09-.22.09h-.79v2.12h-1.29v-2.12h-3.66q-.15 0-.27-.09-.11-.09-.14-.23l-.16-.75 4.11-5.49h1.41v5.41Z"/></svg>